<?xml version="1.0" encoding="utf-8"?>
<!-- Generator: Adobe Illustrator 21.0.2, SVG Export Plug-In . SVG Version: 6.00 Build 0)  -->
<svg version="1.1" id="Layer_1" xmlns="http://www.w3.org/2000/svg" xmlns:xlink="http://www.w3.org/1999/xlink" x="0px" y="0px"
	 viewBox="0 0 576 576" style="enable-background:new 0 0 576 576;" xml:space="preserve">
<style type="text/css">
	.st0{fill:#EE2E45;}
</style>
<path class="st0" d="M404.3,260.4c-7.6,0.2-12.4,0.3-14.4,0.3c-6,0-12.7-0.1-20.2-0.3c-0.6,0.4-1,1.3-1.3,2.6
	c-0.2,1.3-0.2,2.2,0.1,2.6c3.1,0.3,5.5,1.5,7.2,3.4c1.7,1.9,1.8,4.2,0.4,6.9L348,327.2l-3.1,5.5l-0.9-6.4l-8.6-60.5
	c-2.7,0.6-5.4,0.6-8.1-0.3l-34,61.4l-1.9,3.9l-0.4-4.8l-5.1-54.5c-0.1-1.2,0.1-2.2,0.6-3c0.5-0.8,1.5-1.4,2.8-1.8
	c1.3-0.4,2.6-0.7,3.9-0.8s3-0.3,5.2-0.4c0.5-0.5,1-1.4,1.2-2.6s0.2-2.1-0.1-2.6c-7.5,0.2-16.5,0.3-26.9,0.3
	c-6.1,0-20.4-0.2-20.5-0.2c-0.5,0-1,0-1.5,0c-3.1,6.2-6.8,11-11.2,14.4c-4.4,3.4-10.3,5.1-17.7,5.1h-9.2c-3.5,0-4.4-4-2.8-12.1
	l13-61.4c0.5-2.5,1.2-4.6,1.9-6.3s1.5-3,2.2-4s1.8-1.7,3.1-2.2c1.3-0.5,2.5-0.8,3.6-1c1.1-0.1,2.7-0.3,4.7-0.4
	c0.8-0.5,1.4-1.4,1.7-2.6c0.3-1.3,0.1-2.1-0.6-2.6c-3.3,0-6.6,0.1-9.9,0.1c-3.3,0-5.9,0.1-7.8,0.1c-1.9,0-3.8,0-5.5,0
	c-4.1,0-11.9-0.1-23.4-0.3c-0.8,0.4-1.4,1.3-1.7,2.6s-0.1,2.2,0.6,2.6c2,0.1,3.5,0.2,4.5,0.4c1,0.1,2.1,0.5,3.2,1
	c1.1,0.5,1.9,1.2,2.2,2.2c0.3,0.9,0.5,2.3,0.6,3.9c0,1.7-0.2,3.8-0.8,6.2l-12.9,61.1c-0.7,3.1-1.5,5.6-2.3,7.4s-2,3.2-3.5,4.1
	c-1.5,0.9-2.8,1.5-4.1,1.7c-1.3,0.2-3.2,0.4-5.7,0.6c-0.8,0.5-1.4,1.4-1.6,2.6c-0.2,1.3,0,2.1,0.6,2.6l23.4-0.3h34.1
	c2.9,0,8.9,0.1,18.2,0.3c2.7-6.5,5.2-13.3,7.6-20.3c1.7,0.4,3.2,0.9,4.3,1.5c2,1.1,3.2,3.1,3.6,6.1l10.9,83.5
	c0.3,2.4,1.7,3.6,4.2,3.6c2.6,0,4.6-1.2,6-3.6l35.8-60.7l10.4,60.7c0.1,0.8,0.6,1.7,1.4,2.4c0.8,0.8,1.6,1.2,2.4,1.2
	c2.3,0,4.1-1.2,5.3-3.6l44.5-77.9c5-8.7,11.3-13.3,19-13.8c0.5-0.5,1-1.4,1.2-2.6C404.7,261.7,404.6,260.8,404.3,260.4z"/>
</svg>
